<?xml version="1.0" encoding="utf-8"?>
<!-- Generator: Adobe Illustrator 19.0.0, SVG Export Plug-In . SVG Version: 6.00 Build 0)  -->
<svg version="1.1" id="Lager_1" xmlns="http://www.w3.org/2000/svg" xmlns:xlink="http://www.w3.org/1999/xlink" x="0px" y="0px"
	 viewBox="0 0 330 46" style="enable-background:new 0 0 330 46;" xml:space="preserve">
<style type="text/css">
	.st0{fill:#FFFFFF;}
	.st1{fill:#BC9B6A;}
</style>
<g id="XMLID_52_">
	<g id="XMLID_83_">
		<g id="XMLID_84_">
			<path id="XMLID_85_" class="st0" d="M120.1,5.9v3.4h-7.6c-1.8,0-3.1,0.5-3.9,1.5c-1,1.1-1.5,3.1-1.5,5.8c0,2.5,0.5,4.1,1.5,4.9
				c0.7,0.6,2,0.9,3.9,0.9h7.6v3.4h-7.8c-6.9,0-10.3-3.2-10.3-9.6c0-3.3,0.7-5.8,2.2-7.4c1.7-1.9,4.4-2.9,8.2-2.9H120.1z"/>
		</g>
	</g>
	<g id="XMLID_78_">
		<g id="XMLID_79_">
			<path id="XMLID_80_" class="st0" d="M135.7,5.5c3.4,0,6,0.7,7.8,2c2.2,1.7,3.3,4.4,3.3,8.3c0,6.9-3.7,10.4-11,10.4
				c-3.8,0-6.5-0.9-8.3-2.6c-1.8-1.7-2.7-4.3-2.7-7.8C124.7,8.9,128.4,5.5,135.7,5.5z M129.7,15.8c0,4.7,2,7,6,7c4,0,6-2.3,6-6.9
				c0-4.6-2-6.9-6-6.9C131.7,8.9,129.7,11.2,129.7,15.8z"/>
		</g>
	</g>
	<g id="XMLID_74_">
		<g id="XMLID_75_">
			<path id="XMLID_76_" class="st0" d="M157.2,25.8h-4.7V5.9h5.9l9,14.3l-0.2-14.3h4.7v19.9h-5.3l-9.4-15L157.2,25.8z"/>
		</g>
	</g>
	<g id="XMLID_70_">
		<g id="XMLID_71_">
			<path id="XMLID_72_" class="st0" d="M185.4,5.9h12.2v3.5h-11.4c-2.4,0-3.6,0.9-3.6,2.6c0,1.5,1,2.2,2.9,2.2h6.1
				c2.6,0,4.5,0.5,5.6,1.4c1,0.9,1.5,2.3,1.5,4.2c0,2-0.6,3.4-1.7,4.4c-1.2,1-3.2,1.6-6,1.6h-12.3v-3.6h11.6c1.4,0,2.4-0.2,2.9-0.7
				c0.4-0.4,0.6-1,0.6-1.9c0-0.6-0.2-1-0.5-1.3c-0.5-0.4-1.4-0.6-2.8-0.6h-5.5c-5,0-7.4-1.9-7.3-5.8c0-2,0.6-3.4,1.7-4.4
				C180.6,6.5,182.6,5.9,185.4,5.9z"/>
		</g>
	</g>
	<g id="XMLID_65_">
		<g id="XMLID_66_">
			<path id="XMLID_67_" class="st0" d="M214.3,5.5c3.4,0,6,0.7,7.8,2c2.2,1.7,3.3,4.4,3.3,8.3c0,6.9-3.7,10.4-11,10.4
				c-3.8,0-6.5-0.9-8.3-2.6c-1.8-1.7-2.7-4.3-2.7-7.8C203.3,8.9,207,5.5,214.3,5.5z M208.3,15.8c0,4.7,2,7,6,7c4,0,6-2.3,6-6.9
				c0-4.6-2-6.9-6-6.9C210.3,8.9,208.3,11.2,208.3,15.8z"/>
		</g>
	</g>
	<g id="XMLID_61_">
		<g id="XMLID_62_">
			<path id="XMLID_63_" class="st0" d="M266,25.8h-4.8V9.4h-7V6h19v3.4H266V25.8z"/>
		</g>
	</g>
	<g id="XMLID_57_">
		<g id="XMLID_58_">
			<path id="XMLID_59_" class="st0" d="M277.9,18v-12h4.6v11.9c0,1.7,0.3,2.9,0.8,3.6c0.7,0.9,2.1,1.4,4.2,1.4c1.8,0,3-0.3,3.7-1
				c0.8-0.7,1.2-2.1,1.2-4V5.9h4.6v12c0,2.8-0.6,4.7-1.7,5.9c-1.4,1.5-4,2.2-7.8,2.2c-3.7,0-6.3-0.7-7.7-2.1
				C278.6,22.7,277.9,20.8,277.9,18z"/>
		</g>
	</g>
	<g id="XMLID_53_">
		<g id="XMLID_54_">
			<path id="XMLID_55_" class="st0" d="M307.9,25.8h-4.7V5.9h6.8l5.6,15.2l5.6-15.2h6.8v19.9h-4.6l0.4-15.5l-5.6,15.5h-4.9
				l-5.8-15.6L307.9,25.8z"/>
		</g>
	</g>
</g>
<path id="XMLID_51_" class="st0" d="M245.7,17.5c2.9-0.6,4.4-2.5,4.4-5.6c0-2.1-0.6-3.6-1.9-4.6c-1.3-0.9-3.2-1.4-5.8-1.4h-11.4
	v19.9h4.6V18h0v-3.5h0v-5h5.7c1.9,0,3.1,0.3,3.6,0.8c0.3,0.3,0.5,0.9,0.5,1.7c0,1-0.3,1.6-0.9,2c-0.6,0.4-1.7,0.5-3.2,0.5h-5.9
	l0,3.5h5.7l4.9,7.8h5.2L245.7,17.5z"/>
<g id="XMLID_6_">
	<path id="XMLID_49_" class="st0" d="M105.6,40.9v-7.2h0.9v3.5l3.6-3.5h1.3l-3,2.9l3.1,4.3h-1.3l-2.5-3.6l-1.2,1.1v2.5H105.6z"/>
	<path id="XMLID_46_" class="st0" d="M116.9,40.9l2.7-7.2h1l2.9,7.2h-1.1l-0.8-2.2h-3l-0.8,2.2H116.9z M119,37.9h2.4l-0.7-2
		c-0.2-0.6-0.4-1.1-0.5-1.5c-0.1,0.5-0.2,0.9-0.4,1.4L119,37.9z"/>
	<path id="XMLID_43_" class="st0" d="M131.1,40.9v-7.2h2.7c0.5,0,0.8,0,1.1,0.1c0.4,0.1,0.6,0.2,0.9,0.3c0.2,0.2,0.4,0.4,0.6,0.7
		s0.2,0.6,0.2,1c0,0.6-0.2,1.1-0.6,1.5c-0.4,0.4-1.1,0.6-2.1,0.6H132v2.9H131.1z M132,37.1h1.9c0.6,0,1-0.1,1.3-0.3s0.4-0.5,0.4-1
		c0-0.3-0.1-0.6-0.2-0.8c-0.2-0.2-0.4-0.4-0.6-0.4c-0.2,0-0.5-0.1-0.9-0.1H132V37.1z"/>
	<path id="XMLID_41_" class="st0" d="M144.7,40.9v-7.2h0.9v7.2H144.7z"/>
	<path id="XMLID_39_" class="st0" d="M155.9,40.9v-6.3h-2.4v-0.8h5.7v0.8h-2.4v6.3H155.9z"/>
	<path id="XMLID_36_" class="st0" d="M165.4,40.9l2.7-7.2h1l2.9,7.2H171l-0.8-2.2h-3l-0.8,2.2H165.4z M167.4,37.9h2.4l-0.7-2
		c-0.2-0.6-0.4-1.1-0.5-1.5c-0.1,0.5-0.2,0.9-0.4,1.4L167.4,37.9z"/>
	<path id="XMLID_34_" class="st0" d="M179.5,40.9v-7.2h0.9V40h3.5v0.8H179.5z"/>
	<path id="XMLID_32_" class="st0" d="M191.9,40.9v-7.2h4.8v0.8h-3.9v2.2h3.4v0.8h-3.4v3.3H191.9z"/>
	<path id="XMLID_27_" class="st0" d="M204.5,37.4c0-1.2,0.3-2.1,1-2.8c0.6-0.7,1.5-1,2.5-1c0.7,0,1.3,0.2,1.8,0.5s0.9,0.8,1.2,1.3
		c0.3,0.6,0.4,1.2,0.4,1.9c0,0.7-0.1,1.4-0.4,1.9s-0.7,1-1.2,1.3c-0.5,0.3-1.1,0.4-1.7,0.4c-0.7,0-1.3-0.2-1.8-0.5s-0.9-0.8-1.2-1.3
		S204.5,38,204.5,37.4z M205.4,37.4c0,0.9,0.2,1.5,0.7,2c0.5,0.5,1,0.7,1.7,0.7c0.7,0,1.3-0.3,1.8-0.8c0.5-0.5,0.7-1.2,0.7-2.1
		c0-0.6-0.1-1.1-0.3-1.5c-0.2-0.4-0.5-0.8-0.9-1c-0.4-0.2-0.8-0.4-1.3-0.4c-0.7,0-1.2,0.2-1.7,0.7C205.7,35.5,205.4,36.3,205.4,37.4
		z M206.5,33.3v-1h0.9v1H206.5z M208.3,33.3v-1h0.9v1H208.3z"/>
	<path id="XMLID_24_" class="st0" d="M219.3,40.9v-7.2h3.2c0.6,0,1.1,0.1,1.5,0.2c0.3,0.1,0.6,0.4,0.8,0.7s0.3,0.7,0.3,1.1
		c0,0.5-0.2,0.9-0.5,1.3s-0.8,0.6-1.5,0.7c0.3,0.1,0.4,0.2,0.6,0.4c0.3,0.3,0.5,0.6,0.8,1l1.2,1.9h-1.2l-0.9-1.5
		c-0.3-0.4-0.5-0.8-0.7-1s-0.3-0.4-0.5-0.5c-0.1-0.1-0.3-0.2-0.4-0.2c-0.1,0-0.3,0-0.5,0h-1.1v3.2H219.3z M220.2,36.9h2
		c0.4,0,0.8,0,1-0.1c0.2-0.1,0.4-0.2,0.6-0.4c0.1-0.2,0.2-0.4,0.2-0.6c0-0.3-0.1-0.6-0.4-0.8c-0.2-0.2-0.6-0.3-1.2-0.3h-2.3V36.9z"
		/>
	<path id="XMLID_22_" class="st0" d="M235.1,40.9l-2.8-7.2h1l1.9,5.2c0.1,0.4,0.3,0.8,0.4,1.2c0.1-0.4,0.2-0.8,0.4-1.2l1.9-5.2h1
		l-2.8,7.2H235.1z"/>
	<path id="XMLID_19_" class="st0" d="M245,40.9l2.7-7.2h1l2.9,7.2h-1.1l-0.8-2.2h-3l-0.8,2.2H245z M247,37.9h2.4l-0.7-2
		c-0.2-0.6-0.4-1.1-0.5-1.5c-0.1,0.5-0.2,0.9-0.4,1.4L247,37.9z"/>
	<path id="XMLID_17_" class="st0" d="M259.1,40.9v-7.2h0.9V40h3.5v0.8H259.1z"/>
	<path id="XMLID_15_" class="st0" d="M272.6,40.9v-6.3h-2.4v-0.8h5.7v0.8h-2.4v6.3H272.6z"/>
	<path id="XMLID_13_" class="st0" d="M283.6,40.9v-7.2h1l3.8,5.6v-5.6h0.9v7.2h-1l-3.8-5.6v5.6H283.6z"/>
	<path id="XMLID_11_" class="st0" d="M297.7,40.9v-7.2h0.9v7.2H297.7z"/>
	<path id="XMLID_9_" class="st0" d="M307.1,40.9v-7.2h1l3.8,5.6v-5.6h0.9v7.2h-1l-3.8-5.6v5.6H307.1z"/>
	<path id="XMLID_7_" class="st0" d="M324.4,38.1v-0.8l3,0v2.7c-0.5,0.4-0.9,0.7-1.4,0.8c-0.5,0.2-1,0.3-1.5,0.3
		c-0.7,0-1.3-0.2-1.9-0.5c-0.6-0.3-1-0.7-1.3-1.3s-0.4-1.2-0.4-1.9c0-0.7,0.1-1.3,0.4-2c0.3-0.6,0.7-1.1,1.3-1.3s1.2-0.4,1.9-0.4
		c0.5,0,1,0.1,1.4,0.3c0.4,0.2,0.7,0.4,1,0.7s0.4,0.7,0.5,1.2l-0.9,0.2c-0.1-0.4-0.2-0.7-0.4-0.9s-0.4-0.4-0.7-0.5
		c-0.3-0.1-0.6-0.2-1-0.2c-0.4,0-0.8,0.1-1.1,0.2c-0.3,0.1-0.6,0.3-0.8,0.5c-0.2,0.2-0.3,0.5-0.5,0.7c-0.2,0.4-0.3,0.9-0.3,1.4
		c0,0.6,0.1,1.2,0.3,1.6c0.2,0.4,0.5,0.7,1,1s0.9,0.3,1.3,0.3c0.4,0,0.8-0.1,1.2-0.2c0.4-0.2,0.7-0.3,0.9-0.5v-1.3H324.4z"/>
</g>
<g id="XMLID_2_">
	<path id="XMLID_5_" class="st1" d="M45.4,1.8C23.9,1.8,5.9,9.2,2.1,19c11-5.9,33-12.1,57.7-16C55.2,2.2,50.4,1.8,45.4,1.8z"/>
	<path id="XMLID_4_" class="st1" d="M7.2,33.6c7.6,6.3,21.9,10.6,38.2,10.6c14.2,0,26.8-3.2,34.9-8.2C55,38.9,24.1,37.8,7.2,33.6z"
		/>
	<path id="XMLID_3_" class="st1" d="M65.7,4.2c-24.4,5.6-40.4,13-39.8,19.4C26.7,31.1,53.9,34.5,83,34c4.1-3.2,6.5-7,6.5-11
		C89.5,14.8,79.8,7.7,65.7,4.2z"/>
</g>
</svg>
