<?xml version="1.0" encoding="utf-8"?>
<!-- Generator: Adobe Illustrator 19.0.0, SVG Export Plug-In . SVG Version: 6.00 Build 0)  -->
<svg version="1.1" id="Lager_1" xmlns="http://www.w3.org/2000/svg" xmlns:xlink="http://www.w3.org/1999/xlink" x="0px" y="0px"
	 viewBox="0 0 150 150" style="enable-background:new 0 0 150 150;" xml:space="preserve">
<style type="text/css">
	.st0{fill:none;}
	.st1{fill:#FFFFFF;}
	.st2{fill:none;stroke:#FFFFFF;stroke-miterlimit:10;}
</style>
<rect id="XMLID_82_" x="-153.5" y="-146" class="st0" width="457.5" height="457.5"/>
<g id="XMLID_74_">
	<path id="XMLID_79_" class="st1" d="M57.6,58.1h-1.5v-2.6h7.3c3,0,5.1,1.8,5.1,4.9c0,2.9-2,4.2-2.7,4.3v0c0,0,0.5,0.2,0.8,0.8
		l1.6,3.2c0.3,0.5,0.6,0.5,1.2,0.5h0.3v2.6h-1.6c-1.2,0-1.7-0.2-2.3-1.2l-2.1-4.1c-0.3-0.6-0.7-0.8-1.5-0.8h-1.5v6.1h-3V58.1z
		 M63,63.2c1.5,0,2.4-0.9,2.4-2.6c0-1.6-0.9-2.5-2.4-2.5h-2.4v5.1H63z"/>
	<path id="XMLID_77_" class="st1" d="M72.2,58.1h-1.5v-2.6h9.9c1.1,0,1.6,0.5,1.6,1.6v2.5h-2.7v-1c0-0.3-0.2-0.5-0.5-0.5h-3.7v4.3
		h5.3v2.6h-5.3v3.9c0,0.3,0.2,0.5,0.5,0.5h3.8c0.3,0,0.5-0.2,0.5-0.5v-1h2.7v2.5c0,1.1-0.5,1.6-1.6,1.6h-7.4c-1.1,0-1.6-0.5-1.6-1.6
		V58.1z"/>
	<path id="XMLID_75_" class="st1" d="M92.2,55.2c2.1,0,6.2,0.9,6.2,3.7v1.8h-2.7v-0.9c0-1.2-2-1.8-3.4-1.8c-2.9,0-5.2,2.1-5.2,5.5
		c0,3.2,2.3,5.8,5.3,5.8c3.1,0,5-2.2,5-2.2l1.6,2.2c0,0-2.4,2.8-6.6,2.8c-5,0-8.4-3.8-8.4-8.6C83.9,58.8,87.4,55.2,92.2,55.2z"/>
</g>
<g id="XMLID_64_">
	<path id="XMLID_71_" class="st1" d="M56.3,83.9h-1.5v-2.6h7.5c3.1,0,5.2,2.1,5.2,5.3c0,3.2-2.1,5.4-5.2,5.4h-3v5.6h-3V83.9z
		 M61.7,89.5c1.7,0,2.7-1.1,2.7-2.8c0-1.7-1-2.8-2.6-2.8h-2.5v5.6H61.7z"/>
	<path id="XMLID_68_" class="st1" d="M70.2,83.9h-1.5v-2.6H76c3,0,5.1,1.8,5.1,4.9c0,2.9-2,4.2-2.7,4.3v0c0,0,0.5,0.2,0.8,0.8
		l1.6,3.2c0.3,0.5,0.6,0.5,1.2,0.5h0.3v2.6h-1.6c-1.2,0-1.7-0.2-2.3-1.2l-2.1-4.1c-0.3-0.6-0.7-0.8-1.5-0.8h-1.5v6.1h-3V83.9z
		 M75.6,89c1.5,0,2.4-0.9,2.4-2.6c0-1.6-0.9-2.5-2.4-2.5h-2.4V89H75.6z"/>
	<path id="XMLID_65_" class="st1" d="M91.5,81.1c4.8,0,8.5,3.7,8.5,8.3c0,4.8-3.6,8.6-8.5,8.6c-4.8,0-8.5-3.8-8.5-8.6
		C83.1,84.7,86.7,81.1,91.5,81.1z M91.5,95.2c2.9,0,5.3-2.5,5.3-5.8c0-3.1-2.4-5.5-5.3-5.5c-2.9,0-5.3,2.4-5.3,5.5
		C86.2,92.7,88.6,95.2,91.5,95.2z"/>
</g>
<g id="XMLID_8_">
	<path id="XMLID_61_" class="st1" d="M9.9,83.7l-1.6,1.3c0,0.1,0,0.2,0,0.3l0.2,1.4l1.8-0.3l0.1,1l-5.9,0.9l-0.3-2.4
		c-0.2-1.5,0.4-2.5,1.7-2.7c0.9-0.1,1.7,0.2,2.1,0.9l1.8-1.6L9.9,83.7z M7.4,85.5c-0.1-0.9-0.6-1.4-1.4-1.3
		c-0.8,0.1-1.1,0.7-0.9,1.6l0.2,1.4l2.3-0.3L7.4,85.5z"/>
	<path id="XMLID_59_" class="st1" d="M3.8,68.9L4.7,69l-0.2,3.2l1.6,0.1l0.2-2.9l0.9,0.1L7,72.4l1.6,0.1l0.2-3.3l0.9,0.1l-0.3,4.3
		l-5.9-0.4L3.8,68.9z"/>
	<path id="XMLID_57_" class="st1" d="M7,56.4c-0.3,1.2,0.3,2.3,1.5,2.6c1.1,0.3,2.3-0.4,2.6-1.5c0.2-0.6,0.1-1.2-0.3-1.8l0.8-0.4
		c0.4,0.7,0.6,1.7,0.3,2.5c-0.5,1.7-2.1,2.6-3.7,2.2c-1.6-0.4-2.5-2.1-2.1-3.8c0.2-0.8,0.8-1.5,1.5-1.9L8.1,55
		C7.6,55.3,7.1,55.8,7,56.4z"/>
	<path id="XMLID_54_" class="st1" d="M17.6,43.6l-2.4,0.3c-0.1,0.2-0.1,0.3-0.2,0.5l-0.8,1.6l1.8,0.9l-0.2,0.3l-5.3-2.7l0.9-1.9
		c0.7-1.3,1.7-1.7,2.8-1.2c0.9,0.5,1.3,1.2,1,2.2l2.5-0.4L17.6,43.6z M14.6,44.2c0.6-1.1,0.4-2-0.6-2.5c-0.9-0.5-1.8-0.1-2.3,1
		l-0.8,1.6l2.9,1.5L14.6,44.2z"/>
	<path id="XMLID_52_" class="st1" d="M24.1,33.3c0.8-1,0.7-2.1-0.3-2.9l-2.7-2.2l0.2-0.3l2.7,2.2c1.2,1,1.3,2.2,0.4,3.4
		c-1,1.2-2.2,1.3-3.4,0.3l-2.7-2.2l0.2-0.3l2.7,2.2C22.2,34.4,23.3,34.3,24.1,33.3z"/>
	<path id="XMLID_50_" class="st1" d="M29.2,20.1l3.8,4.5l-0.3,0.2L29,20.3L29.2,20.1z"/>
	<path id="XMLID_48_" class="st1" d="M41,11.9l0.2,0.3l-1.7,1l2.9,4.8L42,18.2l-2.9-4.8l-1.7,1l-0.2-0.3L41,11.9z"/>
	<path id="XMLID_46_" class="st1" d="M50.7,7.5l3.8,3.7l0.8-5.2l0.5-0.2l1.9,5.6l-0.3,0.1l-1.8-5.2l-0.8,5.3l-0.2,0.1L50.7,8
		l1.7,5.2l-0.3,0.1l-1.9-5.6L50.7,7.5z"/>
	<path id="XMLID_44_" class="st1" d="M70.3,3.1l0,0.3l-3.5,0.4l0.3,2.4l3.1-0.3l0,0.4l-3.1,0.3L67.5,9l3.6-0.4l0,0.3l-3.9,0.4
		l-0.6-5.9L70.3,3.1z"/>
	<path id="XMLID_42_" class="st1" d="M81.4,3l3.4,5.8l0.5-5.4l0.3,0l-0.6,5.9l-0.4,0l-3.4-5.8L80.8,9l-0.4,0L81,3L81.4,3z"/>
	<path id="XMLID_40_" class="st1" d="M99.8,6.8l-0.1,0.3l-1.9-0.6l-1.7,5.3l-0.3-0.1l1.7-5.3l-1.9-0.6l0.1-0.3L99.8,6.8z"/>
	<path id="XMLID_37_" class="st1" d="M144.6,57.4c-1.3,0.4-2.3-0.2-2.7-1.6l-0.4-1.3l-1.7,0.5l-0.3-1l5.7-1.7l0.7,2.3
		C146.3,56,145.8,57.1,144.6,57.4z M144.3,56.5c0.7-0.2,1-0.8,0.7-1.7l-0.4-1.3l-2.3,0.7l0.4,1.3C143,56.4,143.5,56.8,144.3,56.5z"
		/>
	<path id="XMLID_34_" class="st1" d="M142.9,71l1.7-1.2c0-0.1,0-0.2,0-0.3l-0.1-1.4l-1.8,0.2l-0.1-1l5.9-0.5l0.2,2.4
		c0.1,1.5-0.5,2.5-1.8,2.6c-0.9,0.1-1.7-0.3-2-1.1l-1.9,1.5L142.9,71z M145.4,69.4c0.1,0.9,0.5,1.4,1.3,1.3c0.8-0.1,1.1-0.6,1-1.5
		l-0.1-1.4l-2.3,0.2L145.4,69.4z"/>
	<path id="XMLID_31_" class="st1" d="M145.1,87.3c-1.7-0.2-2.8-1.7-2.6-3.5c0.2-1.8,1.7-3,3.4-2.8c1.7,0.2,2.8,1.7,2.6,3.5
		C148.2,86.3,146.8,87.5,145.1,87.3z M145.7,82c-1.2-0.1-2.2,0.7-2.4,1.9c-0.1,1.2,0.7,2.2,1.8,2.4c1.2,0.1,2.2-0.7,2.3-1.8
		C147.7,83.3,146.9,82.2,145.7,82z"/>
	<path id="XMLID_29_" class="st1" d="M144.4,101l-0.3-0.1l1-3.1l-2.4-0.8l-0.9,2.7l-0.3-0.1l0.9-2.7l-2.5-0.9l0.1-0.3l5.6,1.9
		L144.4,101z"/>
	<path id="XMLID_27_" class="st1" d="M138.3,113.5l-0.3-0.2l1.7-3l-2.1-1.2l-1.5,2.7l-0.3-0.2l1.5-2.7l-2.2-1.2l-1.8,3.1l-0.3-0.2
		l2-3.4l5.2,3L138.3,113.5z"/>
	<path id="XMLID_25_" class="st1" d="M130.8,123.1c0.6-0.7,0.7-1.4,0.3-1.8c-1.4-1.2-3,2.1-4.6,0.6c-0.7-0.6-0.6-1.6,0.2-2.6
		c0.5-0.6,1.3-1,2-1l0.1,0.3c-0.7,0-1.4,0.4-1.9,0.9c-0.7,0.8-0.8,1.6-0.2,2c1.4,1.2,3-2,4.6-0.6c0.6,0.6,0.6,1.5-0.2,2.4
		c-0.4,0.5-1,0.8-1.5,1l-0.1-0.3C130,123.9,130.5,123.5,130.8,123.1z"/>
	<path id="XMLID_23_" class="st1" d="M120.7,132.7c0.7-0.6,1-1.3,0.6-1.8c-1.1-1.4-3.3,1.5-4.6-0.3c-0.6-0.7-0.3-1.7,0.7-2.5
		c0.6-0.5,1.5-0.7,2.2-0.6l0,0.4c-0.7-0.1-1.5,0.1-2,0.6c-0.8,0.6-1.1,1.4-0.6,1.9c1.1,1.5,3.3-1.4,4.6,0.3c0.5,0.7,0.2,1.6-0.7,2.3
		c-0.5,0.4-1.1,0.6-1.6,0.7l-0.1-0.4C119.7,133.3,120.3,133,120.7,132.7z"/>
	<path id="XMLID_21_" class="st1" d="M110.2,139.9l-2.8-5.2l0.3-0.2l2.8,5.2L110.2,139.9z"/>
	<path id="XMLID_18_" class="st1" d="M94,143.2c-0.5-1.6,0.4-3.3,2.1-3.8c1.6-0.5,3.3,0.4,3.8,1.9c0.5,1.6-0.4,3.3-2.1,3.8
		C96.2,145.6,94.5,144.7,94,143.2z M99.5,141.4c-0.4-1.4-2-2.2-3.4-1.7c-1.4,0.4-2.2,1.9-1.8,3.3c0.4,1.4,1.9,2.1,3.4,1.7
		C99.2,144.3,100,142.8,99.5,141.4z"/>
	<path id="XMLID_16_" class="st1" d="M84.2,147.9l-4.4-5.1l0.4,5.4l-0.3,0l-0.5-5.9l0.4,0l4.4,5.1l-0.4-5.4l0.4,0l0.5,5.9
		L84.2,147.9z"/>
	<path id="XMLID_13_" class="st1" d="M65.7,143.3l3.4,0.5l1-1.6l0.4,0.1l-3.4,5.5l-0.4,0l-1.9-6.2l0.4,0.1L65.7,143.3z M65.8,143.7
		l1.1,3.7l2-3.3L65.8,143.7z"/>
	<path id="XMLID_11_" class="st1" d="M53.9,144.8l1.8-5.3l-2.5-0.8l0.1-0.3l2.8,0.9l-1.9,5.6L53.9,144.8z"/>
	<path id="XMLID_9_" class="st1" d="M40.9,138.8c0.8,0.5,1.6,0.4,1.9-0.1c0.9-1.6-2.6-2.5-1.5-4.4c0.4-0.8,1.5-0.9,2.5-0.3
		c0.7,0.4,1.2,1.1,1.4,1.8l-0.3,0.2c-0.2-0.7-0.7-1.3-1.3-1.6c-0.9-0.5-1.7-0.4-2,0.2c-0.9,1.6,2.6,2.5,1.6,4.4
		c-0.4,0.8-1.4,0.9-2.4,0.3c-0.5-0.3-1-0.8-1.3-1.3l0.3-0.2C40,138.1,40.5,138.6,40.9,138.8z"/>
</g>
<circle id="XMLID_7_" class="st1" cx="123.9" cy="25.9" r="2.7"/>
<circle id="XMLID_6_" class="st1" cx="19.4" cy="114.7" r="2.7"/>
<line id="XMLID_5_" class="st2" x1="102.3" y1="106.7" x2="52.6" y2="106.7"/>
<line id="XMLID_4_" class="st2" x1="102.3" y1="45.7" x2="52.6" y2="45.7"/>
<line id="XMLID_3_" class="st2" x1="108.9" y1="52.3" x2="108.9" y2="99.6"/>
<line id="XMLID_2_" class="st2" x1="45.9" y1="52.3" x2="45.9" y2="99.6"/>
</svg>
